<mxfile host="app.diagrams.net" agent="Mozilla/5.0 (Macintosh; Intel Mac OS X 10_15_7) AppleWebKit/605.1.15 (KHTML, like Gecko) Version/17.6 Safari/605.1.15" version="24.7.10">
  <diagram name="第 1 页" id="UXfvJMfmKMgnU5nHpCfp">
    <mxGraphModel dx="3255" dy="2701" grid="1" gridSize="10" guides="1" tooltips="1" connect="1" arrows="1" fold="1" page="1" pageScale="1" pageWidth="827" pageHeight="1169" math="0" shadow="0">
      <root>
        <mxCell id="0" />
        <mxCell id="1" parent="0" />
        <mxCell id="FpOADRXaUX0aLAv3G2hR-1" style="edgeStyle=orthogonalEdgeStyle;rounded=0;orthogonalLoop=1;jettySize=auto;html=1;" edge="1" parent="1" source="FpOADRXaUX0aLAv3G2hR-2" target="FpOADRXaUX0aLAv3G2hR-71">
          <mxGeometry relative="1" as="geometry">
            <mxPoint x="200" y="-61" as="targetPoint" />
          </mxGeometry>
        </mxCell>
        <mxCell id="FpOADRXaUX0aLAv3G2hR-2" value="" style="sketch=0;outlineConnect=0;fontColor=#232F3E;gradientColor=none;fillColor=#232F3D;strokeColor=none;dashed=0;verticalLabelPosition=bottom;verticalAlign=top;align=center;html=1;fontSize=12;fontStyle=0;aspect=fixed;pointerEvents=1;shape=mxgraph.aws4.user;" vertex="1" parent="1">
          <mxGeometry x="-438" y="-140" width="78" height="78" as="geometry" />
        </mxCell>
        <mxCell id="FpOADRXaUX0aLAv3G2hR-3" value="Developers" style="text;html=1;align=center;verticalAlign=middle;resizable=0;points=[];autosize=1;strokeColor=none;fillColor=none;" vertex="1" parent="1">
          <mxGeometry x="-438" y="-62" width="80" height="30" as="geometry" />
        </mxCell>
        <mxCell id="FpOADRXaUX0aLAv3G2hR-11" value="AWS Cloud" style="points=[[0,0],[0.25,0],[0.5,0],[0.75,0],[1,0],[1,0.25],[1,0.5],[1,0.75],[1,1],[0.75,1],[0.5,1],[0.25,1],[0,1],[0,0.75],[0,0.5],[0,0.25]];outlineConnect=0;gradientColor=none;html=1;whiteSpace=wrap;fontSize=12;fontStyle=0;container=1;pointerEvents=0;collapsible=0;recursiveResize=0;shape=mxgraph.aws4.group;grIcon=mxgraph.aws4.group_aws_cloud_alt;strokeColor=#232F3E;fillColor=none;verticalAlign=top;align=left;spacingLeft=30;fontColor=#232F3E;dashed=0;" vertex="1" parent="1">
          <mxGeometry x="-50" y="-260" width="1560" height="1230" as="geometry" />
        </mxCell>
        <mxCell id="FpOADRXaUX0aLAv3G2hR-12" value="" style="sketch=0;points=[[0,0,0],[0.25,0,0],[0.5,0,0],[0.75,0,0],[1,0,0],[0,1,0],[0.25,1,0],[0.5,1,0],[0.75,1,0],[1,1,0],[0,0.25,0],[0,0.5,0],[0,0.75,0],[1,0.25,0],[1,0.5,0],[1,0.75,0]];points=[[0,0,0],[0.25,0,0],[0.5,0,0],[0.75,0,0],[1,0,0],[0,1,0],[0.25,1,0],[0.5,1,0],[0.75,1,0],[1,1,0],[0,0.25,0],[0,0.5,0],[0,0.75,0],[1,0.25,0],[1,0.5,0],[1,0.75,0]];outlineConnect=0;fontColor=#232F3E;fillColor=#E7157B;strokeColor=#ffffff;dashed=0;verticalLabelPosition=bottom;verticalAlign=top;align=center;html=1;fontSize=12;fontStyle=0;aspect=fixed;shape=mxgraph.aws4.resourceIcon;resIcon=mxgraph.aws4.cloudwatch_2;" vertex="1" parent="FpOADRXaUX0aLAv3G2hR-11">
          <mxGeometry x="1410" y="20" width="78" height="78" as="geometry" />
        </mxCell>
        <mxCell id="FpOADRXaUX0aLAv3G2hR-14" value="AWS CloudWatch" style="text;html=1;align=center;verticalAlign=middle;resizable=0;points=[];autosize=1;strokeColor=none;fillColor=none;" vertex="1" parent="FpOADRXaUX0aLAv3G2hR-11">
          <mxGeometry x="1380" y="110" width="120" height="30" as="geometry" />
        </mxCell>
        <mxCell id="FpOADRXaUX0aLAv3G2hR-16" value="RDS" style="text;html=1;align=center;verticalAlign=middle;resizable=0;points=[];autosize=1;strokeColor=none;fillColor=none;" vertex="1" parent="FpOADRXaUX0aLAv3G2hR-11">
          <mxGeometry x="1003" y="388" width="50" height="30" as="geometry" />
        </mxCell>
        <mxCell id="FpOADRXaUX0aLAv3G2hR-17" style="edgeStyle=orthogonalEdgeStyle;rounded=0;orthogonalLoop=1;jettySize=auto;html=1;" edge="1" parent="FpOADRXaUX0aLAv3G2hR-11" source="FpOADRXaUX0aLAv3G2hR-18" target="FpOADRXaUX0aLAv3G2hR-19">
          <mxGeometry relative="1" as="geometry" />
        </mxCell>
        <mxCell id="FpOADRXaUX0aLAv3G2hR-18" value="" style="sketch=0;points=[[0,0,0],[0.25,0,0],[0.5,0,0],[0.75,0,0],[1,0,0],[0,1,0],[0.25,1,0],[0.5,1,0],[0.75,1,0],[1,1,0],[0,0.25,0],[0,0.5,0],[0,0.75,0],[1,0.25,0],[1,0.5,0],[1,0.75,0]];outlineConnect=0;fontColor=#232F3E;fillColor=#ED7100;strokeColor=#ffffff;dashed=0;verticalLabelPosition=bottom;verticalAlign=top;align=center;html=1;fontSize=12;fontStyle=0;aspect=fixed;shape=mxgraph.aws4.resourceIcon;resIcon=mxgraph.aws4.lambda;" vertex="1" parent="FpOADRXaUX0aLAv3G2hR-11">
          <mxGeometry x="767" y="298" width="78" height="78" as="geometry" />
        </mxCell>
        <mxCell id="FpOADRXaUX0aLAv3G2hR-19" value="" style="sketch=0;points=[[0,0,0],[0.25,0,0],[0.5,0,0],[0.75,0,0],[1,0,0],[0,1,0],[0.25,1,0],[0.5,1,0],[0.75,1,0],[1,1,0],[0,0.25,0],[0,0.5,0],[0,0.75,0],[1,0.25,0],[1,0.5,0],[1,0.75,0]];outlineConnect=0;fontColor=#232F3E;fillColor=#C925D1;strokeColor=#ffffff;dashed=0;verticalLabelPosition=bottom;verticalAlign=top;align=center;html=1;fontSize=12;fontStyle=0;aspect=fixed;shape=mxgraph.aws4.resourceIcon;resIcon=mxgraph.aws4.rds;" vertex="1" parent="FpOADRXaUX0aLAv3G2hR-11">
          <mxGeometry x="991" y="298" width="78" height="78" as="geometry" />
        </mxCell>
        <mxCell id="FpOADRXaUX0aLAv3G2hR-20" style="edgeStyle=orthogonalEdgeStyle;rounded=0;orthogonalLoop=1;jettySize=auto;html=1;" edge="1" parent="FpOADRXaUX0aLAv3G2hR-11" source="FpOADRXaUX0aLAv3G2hR-21" target="FpOADRXaUX0aLAv3G2hR-18">
          <mxGeometry relative="1" as="geometry" />
        </mxCell>
        <mxCell id="FpOADRXaUX0aLAv3G2hR-21" value="" style="sketch=0;points=[[0,0,0],[0.25,0,0],[0.5,0,0],[0.75,0,0],[1,0,0],[0,1,0],[0.25,1,0],[0.5,1,0],[0.75,1,0],[1,1,0],[0,0.25,0],[0,0.5,0],[0,0.75,0],[1,0.25,0],[1,0.5,0],[1,0.75,0]];outlineConnect=0;fontColor=#232F3E;fillColor=#E7157B;strokeColor=#ffffff;dashed=0;verticalLabelPosition=bottom;verticalAlign=top;align=center;html=1;fontSize=12;fontStyle=0;aspect=fixed;shape=mxgraph.aws4.resourceIcon;resIcon=mxgraph.aws4.sqs;" vertex="1" parent="FpOADRXaUX0aLAv3G2hR-11">
          <mxGeometry x="571" y="298" width="78" height="78" as="geometry" />
        </mxCell>
        <mxCell id="FpOADRXaUX0aLAv3G2hR-22" value="Amazon SQS" style="text;html=1;align=center;verticalAlign=middle;resizable=0;points=[];autosize=1;strokeColor=none;fillColor=none;" vertex="1" parent="FpOADRXaUX0aLAv3G2hR-11">
          <mxGeometry x="560" y="388" width="100" height="30" as="geometry" />
        </mxCell>
        <mxCell id="FpOADRXaUX0aLAv3G2hR-23" value="" style="sketch=0;points=[[0,0,0],[0.25,0,0],[0.5,0,0],[0.75,0,0],[1,0,0],[0,1,0],[0.25,1,0],[0.5,1,0],[0.75,1,0],[1,1,0],[0,0.25,0],[0,0.5,0],[0,0.75,0],[1,0.25,0],[1,0.5,0],[1,0.75,0]];outlineConnect=0;fontColor=#232F3E;fillColor=#E7157B;strokeColor=#ffffff;dashed=0;verticalLabelPosition=bottom;verticalAlign=top;align=center;html=1;fontSize=12;fontStyle=0;aspect=fixed;shape=mxgraph.aws4.resourceIcon;resIcon=mxgraph.aws4.sqs;" vertex="1" parent="FpOADRXaUX0aLAv3G2hR-11">
          <mxGeometry x="767" y="458" width="78" height="78" as="geometry" />
        </mxCell>
        <mxCell id="FpOADRXaUX0aLAv3G2hR-24" value="Amazon L&lt;span style=&quot;background-color: initial;&quot;&gt;ambda&lt;/span&gt;" style="text;html=1;align=center;verticalAlign=middle;resizable=0;points=[];autosize=1;strokeColor=none;fillColor=none;" vertex="1" parent="FpOADRXaUX0aLAv3G2hR-11">
          <mxGeometry x="751" y="378" width="110" height="30" as="geometry" />
        </mxCell>
        <mxCell id="FpOADRXaUX0aLAv3G2hR-25" value="Dead Letter Queue" style="text;html=1;align=center;verticalAlign=middle;resizable=0;points=[];autosize=1;strokeColor=none;fillColor=none;" vertex="1" parent="FpOADRXaUX0aLAv3G2hR-11">
          <mxGeometry x="735" y="549" width="130" height="30" as="geometry" />
        </mxCell>
        <mxCell id="FpOADRXaUX0aLAv3G2hR-26" value="Processing Task" style="text;html=1;align=center;verticalAlign=middle;resizable=0;points=[];autosize=1;strokeColor=none;fillColor=none;" vertex="1" parent="FpOADRXaUX0aLAv3G2hR-11">
          <mxGeometry x="652" y="338" width="110" height="30" as="geometry" />
        </mxCell>
        <mxCell id="FpOADRXaUX0aLAv3G2hR-27" value="F&lt;span style=&quot;background-color: initial;&quot;&gt;ailed&amp;nbsp; Task&lt;/span&gt;" style="text;html=1;align=center;verticalAlign=middle;resizable=0;points=[];autosize=1;strokeColor=none;fillColor=none;" vertex="1" parent="FpOADRXaUX0aLAv3G2hR-11">
          <mxGeometry x="865" y="408" width="90" height="30" as="geometry" />
        </mxCell>
        <mxCell id="FpOADRXaUX0aLAv3G2hR-28" value="Clear Completed Task" style="text;html=1;align=center;verticalAlign=middle;resizable=0;points=[];autosize=1;strokeColor=none;fillColor=none;" vertex="1" parent="FpOADRXaUX0aLAv3G2hR-11">
          <mxGeometry x="632" y="248" width="140" height="30" as="geometry" />
        </mxCell>
        <mxCell id="FpOADRXaUX0aLAv3G2hR-29" value="Amazon SageMaker" style="text;html=1;align=center;verticalAlign=middle;resizable=0;points=[];autosize=1;strokeColor=none;fillColor=none;" vertex="1" parent="FpOADRXaUX0aLAv3G2hR-11">
          <mxGeometry x="1110" y="248" width="130" height="30" as="geometry" />
        </mxCell>
        <mxCell id="FpOADRXaUX0aLAv3G2hR-30" value="Learn and Manage Amazon Lambda resources" style="text;html=1;align=center;verticalAlign=middle;resizable=0;points=[];autosize=1;strokeColor=none;fillColor=none;" vertex="1" parent="FpOADRXaUX0aLAv3G2hR-11">
          <mxGeometry x="825" y="218" width="270" height="30" as="geometry" />
        </mxCell>
        <mxCell id="FpOADRXaUX0aLAv3G2hR-31" style="edgeStyle=orthogonalEdgeStyle;rounded=0;orthogonalLoop=1;jettySize=auto;html=1;entryX=1;entryY=0.75;entryDx=0;entryDy=0;entryPerimeter=0;" edge="1" parent="FpOADRXaUX0aLAv3G2hR-11" source="FpOADRXaUX0aLAv3G2hR-18" target="FpOADRXaUX0aLAv3G2hR-23">
          <mxGeometry relative="1" as="geometry">
            <Array as="points">
              <mxPoint x="865" y="337" />
              <mxPoint x="865" y="516" />
            </Array>
          </mxGeometry>
        </mxCell>
        <mxCell id="FpOADRXaUX0aLAv3G2hR-32" style="edgeStyle=orthogonalEdgeStyle;rounded=0;orthogonalLoop=1;jettySize=auto;html=1;entryX=0.5;entryY=0;entryDx=0;entryDy=0;entryPerimeter=0;" edge="1" parent="FpOADRXaUX0aLAv3G2hR-11" source="FpOADRXaUX0aLAv3G2hR-18" target="FpOADRXaUX0aLAv3G2hR-21">
          <mxGeometry relative="1" as="geometry">
            <Array as="points">
              <mxPoint x="806" y="278" />
              <mxPoint x="610" y="278" />
            </Array>
          </mxGeometry>
        </mxCell>
        <mxCell id="FpOADRXaUX0aLAv3G2hR-33" style="edgeStyle=orthogonalEdgeStyle;rounded=0;orthogonalLoop=1;jettySize=auto;html=1;entryX=0.639;entryY=0.004;entryDx=0;entryDy=0;entryPerimeter=0;startArrow=classic;startFill=1;" edge="1" parent="FpOADRXaUX0aLAv3G2hR-11" source="FpOADRXaUX0aLAv3G2hR-35" target="FpOADRXaUX0aLAv3G2hR-18">
          <mxGeometry relative="1" as="geometry" />
        </mxCell>
        <mxCell id="FpOADRXaUX0aLAv3G2hR-34" style="edgeStyle=orthogonalEdgeStyle;rounded=0;orthogonalLoop=1;jettySize=auto;html=1;" edge="1" parent="FpOADRXaUX0aLAv3G2hR-11" source="FpOADRXaUX0aLAv3G2hR-35" target="FpOADRXaUX0aLAv3G2hR-68">
          <mxGeometry relative="1" as="geometry" />
        </mxCell>
        <mxCell id="FpOADRXaUX0aLAv3G2hR-35" value="" style="sketch=0;points=[[0,0,0],[0.25,0,0],[0.5,0,0],[0.75,0,0],[1,0,0],[0,1,0],[0.25,1,0],[0.5,1,0],[0.75,1,0],[1,1,0],[0,0.25,0],[0,0.5,0],[0,0.75,0],[1,0.25,0],[1,0.5,0],[1,0.75,0]];outlineConnect=0;fontColor=#232F3E;fillColor=#01A88D;strokeColor=#ffffff;dashed=0;verticalLabelPosition=bottom;verticalAlign=top;align=center;html=1;fontSize=12;fontStyle=0;aspect=fixed;shape=mxgraph.aws4.resourceIcon;resIcon=mxgraph.aws4.sagemaker;" vertex="1" parent="FpOADRXaUX0aLAv3G2hR-11">
          <mxGeometry x="1140" y="170" width="78" height="78" as="geometry" />
        </mxCell>
        <mxCell id="FpOADRXaUX0aLAv3G2hR-37" value="VPC" style="points=[[0,0],[0.25,0],[0.5,0],[0.75,0],[1,0],[1,0.25],[1,0.5],[1,0.75],[1,1],[0.75,1],[0.5,1],[0.25,1],[0,1],[0,0.75],[0,0.5],[0,0.25]];outlineConnect=0;gradientColor=none;html=1;whiteSpace=wrap;fontSize=12;fontStyle=0;container=1;pointerEvents=0;collapsible=0;recursiveResize=0;shape=mxgraph.aws4.group;grIcon=mxgraph.aws4.group_vpc2;strokeColor=#8C4FFF;fillColor=none;verticalAlign=top;align=left;spacingLeft=30;fontColor=#AAB7B8;dashed=0;" vertex="1" parent="FpOADRXaUX0aLAv3G2hR-11">
          <mxGeometry x="420" y="730" width="850" height="450" as="geometry" />
        </mxCell>
        <mxCell id="FpOADRXaUX0aLAv3G2hR-38" value="Blue Environment" style="text;html=1;align=center;verticalAlign=middle;resizable=0;points=[];autosize=1;strokeColor=none;fillColor=none;" vertex="1" parent="FpOADRXaUX0aLAv3G2hR-37">
          <mxGeometry x="50" y="28" width="120" height="30" as="geometry" />
        </mxCell>
        <mxCell id="FpOADRXaUX0aLAv3G2hR-39" value="Task" style="text;html=1;align=center;verticalAlign=middle;resizable=0;points=[];autosize=1;strokeColor=none;fillColor=none;" vertex="1" parent="FpOADRXaUX0aLAv3G2hR-37">
          <mxGeometry x="50" y="130" width="50" height="30" as="geometry" />
        </mxCell>
        <mxCell id="FpOADRXaUX0aLAv3G2hR-40" value="RDS" style="text;html=1;align=center;verticalAlign=middle;resizable=0;points=[];autosize=1;strokeColor=none;fillColor=none;" vertex="1" parent="FpOADRXaUX0aLAv3G2hR-11">
          <mxGeometry x="1003" y="958" width="50" height="30" as="geometry" />
        </mxCell>
        <mxCell id="FpOADRXaUX0aLAv3G2hR-41" style="edgeStyle=orthogonalEdgeStyle;rounded=0;orthogonalLoop=1;jettySize=auto;html=1;" edge="1" parent="FpOADRXaUX0aLAv3G2hR-11" source="FpOADRXaUX0aLAv3G2hR-42" target="FpOADRXaUX0aLAv3G2hR-43">
          <mxGeometry relative="1" as="geometry" />
        </mxCell>
        <mxCell id="FpOADRXaUX0aLAv3G2hR-42" value="" style="sketch=0;points=[[0,0,0],[0.25,0,0],[0.5,0,0],[0.75,0,0],[1,0,0],[0,1,0],[0.25,1,0],[0.5,1,0],[0.75,1,0],[1,1,0],[0,0.25,0],[0,0.5,0],[0,0.75,0],[1,0.25,0],[1,0.5,0],[1,0.75,0]];outlineConnect=0;fontColor=#232F3E;fillColor=#ED7100;strokeColor=#ffffff;dashed=0;verticalLabelPosition=bottom;verticalAlign=top;align=center;html=1;fontSize=12;fontStyle=0;aspect=fixed;shape=mxgraph.aws4.resourceIcon;resIcon=mxgraph.aws4.lambda;" vertex="1" parent="FpOADRXaUX0aLAv3G2hR-11">
          <mxGeometry x="767" y="868" width="78" height="78" as="geometry" />
        </mxCell>
        <mxCell id="FpOADRXaUX0aLAv3G2hR-43" value="" style="sketch=0;points=[[0,0,0],[0.25,0,0],[0.5,0,0],[0.75,0,0],[1,0,0],[0,1,0],[0.25,1,0],[0.5,1,0],[0.75,1,0],[1,1,0],[0,0.25,0],[0,0.5,0],[0,0.75,0],[1,0.25,0],[1,0.5,0],[1,0.75,0]];outlineConnect=0;fontColor=#232F3E;fillColor=#C925D1;strokeColor=#ffffff;dashed=0;verticalLabelPosition=bottom;verticalAlign=top;align=center;html=1;fontSize=12;fontStyle=0;aspect=fixed;shape=mxgraph.aws4.resourceIcon;resIcon=mxgraph.aws4.rds;" vertex="1" parent="FpOADRXaUX0aLAv3G2hR-11">
          <mxGeometry x="991" y="868" width="78" height="78" as="geometry" />
        </mxCell>
        <mxCell id="FpOADRXaUX0aLAv3G2hR-44" style="edgeStyle=orthogonalEdgeStyle;rounded=0;orthogonalLoop=1;jettySize=auto;html=1;" edge="1" parent="FpOADRXaUX0aLAv3G2hR-11" source="FpOADRXaUX0aLAv3G2hR-45" target="FpOADRXaUX0aLAv3G2hR-42">
          <mxGeometry relative="1" as="geometry" />
        </mxCell>
        <mxCell id="FpOADRXaUX0aLAv3G2hR-45" value="" style="sketch=0;points=[[0,0,0],[0.25,0,0],[0.5,0,0],[0.75,0,0],[1,0,0],[0,1,0],[0.25,1,0],[0.5,1,0],[0.75,1,0],[1,1,0],[0,0.25,0],[0,0.5,0],[0,0.75,0],[1,0.25,0],[1,0.5,0],[1,0.75,0]];outlineConnect=0;fontColor=#232F3E;fillColor=#E7157B;strokeColor=#ffffff;dashed=0;verticalLabelPosition=bottom;verticalAlign=top;align=center;html=1;fontSize=12;fontStyle=0;aspect=fixed;shape=mxgraph.aws4.resourceIcon;resIcon=mxgraph.aws4.sqs;" vertex="1" parent="FpOADRXaUX0aLAv3G2hR-11">
          <mxGeometry x="571" y="868" width="78" height="78" as="geometry" />
        </mxCell>
        <mxCell id="FpOADRXaUX0aLAv3G2hR-46" value="Amazon SQS" style="text;html=1;align=center;verticalAlign=middle;resizable=0;points=[];autosize=1;strokeColor=none;fillColor=none;" vertex="1" parent="FpOADRXaUX0aLAv3G2hR-11">
          <mxGeometry x="560" y="958" width="100" height="30" as="geometry" />
        </mxCell>
        <mxCell id="FpOADRXaUX0aLAv3G2hR-47" value="" style="sketch=0;points=[[0,0,0],[0.25,0,0],[0.5,0,0],[0.75,0,0],[1,0,0],[0,1,0],[0.25,1,0],[0.5,1,0],[0.75,1,0],[1,1,0],[0,0.25,0],[0,0.5,0],[0,0.75,0],[1,0.25,0],[1,0.5,0],[1,0.75,0]];outlineConnect=0;fontColor=#232F3E;fillColor=#E7157B;strokeColor=#ffffff;dashed=0;verticalLabelPosition=bottom;verticalAlign=top;align=center;html=1;fontSize=12;fontStyle=0;aspect=fixed;shape=mxgraph.aws4.resourceIcon;resIcon=mxgraph.aws4.sqs;" vertex="1" parent="FpOADRXaUX0aLAv3G2hR-11">
          <mxGeometry x="767" y="1028" width="78" height="78" as="geometry" />
        </mxCell>
        <mxCell id="FpOADRXaUX0aLAv3G2hR-48" value="Amazon L&lt;span style=&quot;background-color: initial;&quot;&gt;ambda&lt;/span&gt;" style="text;html=1;align=center;verticalAlign=middle;resizable=0;points=[];autosize=1;strokeColor=none;fillColor=none;" vertex="1" parent="FpOADRXaUX0aLAv3G2hR-11">
          <mxGeometry x="751" y="948" width="110" height="30" as="geometry" />
        </mxCell>
        <mxCell id="FpOADRXaUX0aLAv3G2hR-49" value="Dead Letter Queue" style="text;html=1;align=center;verticalAlign=middle;resizable=0;points=[];autosize=1;strokeColor=none;fillColor=none;" vertex="1" parent="FpOADRXaUX0aLAv3G2hR-11">
          <mxGeometry x="735" y="1119" width="130" height="30" as="geometry" />
        </mxCell>
        <mxCell id="FpOADRXaUX0aLAv3G2hR-50" value="Processing Task" style="text;html=1;align=center;verticalAlign=middle;resizable=0;points=[];autosize=1;strokeColor=none;fillColor=none;" vertex="1" parent="FpOADRXaUX0aLAv3G2hR-11">
          <mxGeometry x="652" y="908" width="110" height="30" as="geometry" />
        </mxCell>
        <mxCell id="FpOADRXaUX0aLAv3G2hR-51" value="F&lt;span style=&quot;background-color: initial;&quot;&gt;ailed&amp;nbsp; Task&lt;/span&gt;" style="text;html=1;align=center;verticalAlign=middle;resizable=0;points=[];autosize=1;strokeColor=none;fillColor=none;" vertex="1" parent="FpOADRXaUX0aLAv3G2hR-11">
          <mxGeometry x="865" y="978" width="90" height="30" as="geometry" />
        </mxCell>
        <mxCell id="FpOADRXaUX0aLAv3G2hR-52" value="Clear Completed Task" style="text;html=1;align=center;verticalAlign=middle;resizable=0;points=[];autosize=1;strokeColor=none;fillColor=none;" vertex="1" parent="FpOADRXaUX0aLAv3G2hR-11">
          <mxGeometry x="632" y="818" width="140" height="30" as="geometry" />
        </mxCell>
        <mxCell id="FpOADRXaUX0aLAv3G2hR-53" value="Amazon SageMaker" style="text;html=1;align=center;verticalAlign=middle;resizable=0;points=[];autosize=1;strokeColor=none;fillColor=none;" vertex="1" parent="FpOADRXaUX0aLAv3G2hR-11">
          <mxGeometry x="1110" y="818" width="130" height="30" as="geometry" />
        </mxCell>
        <mxCell id="FpOADRXaUX0aLAv3G2hR-54" value="Learn and Manage Amazon Lambda resources" style="text;html=1;align=center;verticalAlign=middle;resizable=0;points=[];autosize=1;strokeColor=none;fillColor=none;" vertex="1" parent="FpOADRXaUX0aLAv3G2hR-11">
          <mxGeometry x="825" y="788" width="270" height="30" as="geometry" />
        </mxCell>
        <mxCell id="FpOADRXaUX0aLAv3G2hR-55" style="edgeStyle=orthogonalEdgeStyle;rounded=0;orthogonalLoop=1;jettySize=auto;html=1;entryX=1;entryY=0.75;entryDx=0;entryDy=0;entryPerimeter=0;" edge="1" parent="FpOADRXaUX0aLAv3G2hR-11" source="FpOADRXaUX0aLAv3G2hR-42" target="FpOADRXaUX0aLAv3G2hR-47">
          <mxGeometry relative="1" as="geometry">
            <Array as="points">
              <mxPoint x="865" y="907" />
              <mxPoint x="865" y="1086" />
            </Array>
          </mxGeometry>
        </mxCell>
        <mxCell id="FpOADRXaUX0aLAv3G2hR-56" style="edgeStyle=orthogonalEdgeStyle;rounded=0;orthogonalLoop=1;jettySize=auto;html=1;entryX=0.5;entryY=0;entryDx=0;entryDy=0;entryPerimeter=0;" edge="1" parent="FpOADRXaUX0aLAv3G2hR-11" source="FpOADRXaUX0aLAv3G2hR-42" target="FpOADRXaUX0aLAv3G2hR-45">
          <mxGeometry relative="1" as="geometry">
            <Array as="points">
              <mxPoint x="806" y="848" />
              <mxPoint x="610" y="848" />
            </Array>
          </mxGeometry>
        </mxCell>
        <mxCell id="FpOADRXaUX0aLAv3G2hR-57" style="edgeStyle=orthogonalEdgeStyle;rounded=0;orthogonalLoop=1;jettySize=auto;html=1;entryX=0.639;entryY=0.004;entryDx=0;entryDy=0;entryPerimeter=0;startArrow=classic;startFill=1;" edge="1" parent="FpOADRXaUX0aLAv3G2hR-11" source="FpOADRXaUX0aLAv3G2hR-59" target="FpOADRXaUX0aLAv3G2hR-42">
          <mxGeometry relative="1" as="geometry" />
        </mxCell>
        <mxCell id="FpOADRXaUX0aLAv3G2hR-58" style="edgeStyle=orthogonalEdgeStyle;rounded=0;orthogonalLoop=1;jettySize=auto;html=1;" edge="1" parent="FpOADRXaUX0aLAv3G2hR-11" source="FpOADRXaUX0aLAv3G2hR-59" target="FpOADRXaUX0aLAv3G2hR-68">
          <mxGeometry relative="1" as="geometry" />
        </mxCell>
        <mxCell id="FpOADRXaUX0aLAv3G2hR-59" value="" style="sketch=0;points=[[0,0,0],[0.25,0,0],[0.5,0,0],[0.75,0,0],[1,0,0],[0,1,0],[0.25,1,0],[0.5,1,0],[0.75,1,0],[1,1,0],[0,0.25,0],[0,0.5,0],[0,0.75,0],[1,0.25,0],[1,0.5,0],[1,0.75,0]];outlineConnect=0;fontColor=#232F3E;fillColor=#01A88D;strokeColor=#ffffff;dashed=0;verticalLabelPosition=bottom;verticalAlign=top;align=center;html=1;fontSize=12;fontStyle=0;aspect=fixed;shape=mxgraph.aws4.resourceIcon;resIcon=mxgraph.aws4.sagemaker;" vertex="1" parent="FpOADRXaUX0aLAv3G2hR-11">
          <mxGeometry x="1140" y="740" width="78" height="78" as="geometry" />
        </mxCell>
        <mxCell id="FpOADRXaUX0aLAv3G2hR-64" value="Amazon CloudFront" style="text;html=1;align=center;verticalAlign=middle;resizable=0;points=[];autosize=1;strokeColor=none;fillColor=none;" vertex="1" parent="FpOADRXaUX0aLAv3G2hR-11">
          <mxGeometry x="273" y="638" width="130" height="30" as="geometry" />
        </mxCell>
        <mxCell id="FpOADRXaUX0aLAv3G2hR-66" value="WAF" style="text;html=1;align=center;verticalAlign=middle;resizable=0;points=[];autosize=1;strokeColor=none;fillColor=none;" vertex="1" parent="FpOADRXaUX0aLAv3G2hR-11">
          <mxGeometry x="181.5" y="638" width="50" height="30" as="geometry" />
        </mxCell>
        <mxCell id="FpOADRXaUX0aLAv3G2hR-68" value="" style="sketch=0;points=[[0,0,0],[0.25,0,0],[0.5,0,0],[0.75,0,0],[1,0,0],[0,1,0],[0.25,1,0],[0.5,1,0],[0.75,1,0],[1,1,0],[0,0.25,0],[0,0.5,0],[0,0.75,0],[1,0.25,0],[1,0.5,0],[1,0.75,0]];outlineConnect=0;fontColor=#232F3E;fillColor=#7AA116;strokeColor=#ffffff;dashed=0;verticalLabelPosition=bottom;verticalAlign=top;align=center;html=1;fontSize=12;fontStyle=0;aspect=fixed;shape=mxgraph.aws4.resourceIcon;resIcon=mxgraph.aws4.s3;" vertex="1" parent="FpOADRXaUX0aLAv3G2hR-11">
          <mxGeometry x="1360" y="630" width="78" height="78" as="geometry" />
        </mxCell>
        <mxCell id="FpOADRXaUX0aLAv3G2hR-69" value="Storing ML Data" style="text;html=1;align=center;verticalAlign=middle;resizable=0;points=[];autosize=1;strokeColor=none;fillColor=none;" vertex="1" parent="FpOADRXaUX0aLAv3G2hR-11">
          <mxGeometry x="1280" y="570" width="110" height="30" as="geometry" />
        </mxCell>
        <mxCell id="FpOADRXaUX0aLAv3G2hR-70" value="Storing ML Data" style="text;html=1;align=center;verticalAlign=middle;resizable=0;points=[];autosize=1;strokeColor=none;fillColor=none;" vertex="1" parent="FpOADRXaUX0aLAv3G2hR-11">
          <mxGeometry x="1280" y="730" width="110" height="30" as="geometry" />
        </mxCell>
        <mxCell id="FpOADRXaUX0aLAv3G2hR-71" value="" style="sketch=0;points=[[0,0,0],[0.25,0,0],[0.5,0,0],[0.75,0,0],[1,0,0],[0,1,0],[0.25,1,0],[0.5,1,0],[0.75,1,0],[1,1,0],[0,0.25,0],[0,0.5,0],[0,0.75,0],[1,0.25,0],[1,0.5,0],[1,0.75,0]];outlineConnect=0;fontColor=#232F3E;fillColor=#C925D1;strokeColor=#ffffff;dashed=0;verticalLabelPosition=bottom;verticalAlign=top;align=center;html=1;fontSize=12;fontStyle=0;aspect=fixed;shape=mxgraph.aws4.resourceIcon;resIcon=mxgraph.aws4.codepipeline;" vertex="1" parent="FpOADRXaUX0aLAv3G2hR-11">
          <mxGeometry x="140" y="120" width="78" height="78" as="geometry" />
        </mxCell>
        <mxCell id="FpOADRXaUX0aLAv3G2hR-72" style="edgeStyle=orthogonalEdgeStyle;rounded=0;orthogonalLoop=1;jettySize=auto;html=1;exitX=1;exitY=0.5;exitDx=0;exitDy=0;exitPerimeter=0;" edge="1" parent="FpOADRXaUX0aLAv3G2hR-11" source="FpOADRXaUX0aLAv3G2hR-85" target="FpOADRXaUX0aLAv3G2hR-21">
          <mxGeometry relative="1" as="geometry">
            <Array as="points">
              <mxPoint x="340" y="601" />
              <mxPoint x="610" y="600" />
            </Array>
            <mxPoint x="339.5" y="603" as="sourcePoint" />
          </mxGeometry>
        </mxCell>
        <mxCell id="FpOADRXaUX0aLAv3G2hR-74" value="After the green environment is ready and tested,&amp;nbsp;&lt;div&gt;production traffic is redirected from blue to green&lt;/div&gt;" style="text;html=1;align=center;verticalAlign=middle;resizable=0;points=[];autosize=1;strokeColor=none;fillColor=none;" vertex="1" parent="FpOADRXaUX0aLAv3G2hR-11">
          <mxGeometry x="780" y="649" width="280" height="40" as="geometry" />
        </mxCell>
        <mxCell id="FpOADRXaUX0aLAv3G2hR-75" value="VPC" style="points=[[0,0],[0.25,0],[0.5,0],[0.75,0],[1,0],[1,0.25],[1,0.5],[1,0.75],[1,1],[0.75,1],[0.5,1],[0.25,1],[0,1],[0,0.75],[0,0.5],[0,0.25]];outlineConnect=0;gradientColor=none;html=1;whiteSpace=wrap;fontSize=12;fontStyle=0;container=1;pointerEvents=0;collapsible=0;recursiveResize=0;shape=mxgraph.aws4.group;grIcon=mxgraph.aws4.group_vpc2;strokeColor=#8C4FFF;fillColor=none;verticalAlign=top;align=left;spacingLeft=30;fontColor=#AAB7B8;dashed=0;" vertex="1" parent="FpOADRXaUX0aLAv3G2hR-11">
          <mxGeometry x="420" y="160" width="830" height="450" as="geometry" />
        </mxCell>
        <mxCell id="FpOADRXaUX0aLAv3G2hR-101" value="Task" style="text;html=1;align=center;verticalAlign=middle;resizable=0;points=[];autosize=1;strokeColor=none;fillColor=none;" vertex="1" parent="FpOADRXaUX0aLAv3G2hR-75">
          <mxGeometry x="182" y="346" width="50" height="30" as="geometry" />
        </mxCell>
        <mxCell id="FpOADRXaUX0aLAv3G2hR-15" value="Green Environment" style="text;html=1;align=center;verticalAlign=middle;resizable=0;points=[];autosize=1;strokeColor=none;fillColor=none;" vertex="1" parent="FpOADRXaUX0aLAv3G2hR-75">
          <mxGeometry x="70" y="38" width="130" height="30" as="geometry" />
        </mxCell>
        <mxCell id="FpOADRXaUX0aLAv3G2hR-76" style="edgeStyle=orthogonalEdgeStyle;rounded=0;orthogonalLoop=1;jettySize=auto;html=1;" edge="1" parent="FpOADRXaUX0aLAv3G2hR-11" source="FpOADRXaUX0aLAv3G2hR-75" target="FpOADRXaUX0aLAv3G2hR-37">
          <mxGeometry relative="1" as="geometry">
            <Array as="points">
              <mxPoint x="765" y="700" />
              <mxPoint x="765" y="700" />
            </Array>
          </mxGeometry>
        </mxCell>
        <mxCell id="FpOADRXaUX0aLAv3G2hR-73" value="AWS CodePipeline" style="text;html=1;align=center;verticalAlign=middle;resizable=0;points=[];autosize=1;strokeColor=none;fillColor=none;" vertex="1" parent="FpOADRXaUX0aLAv3G2hR-11">
          <mxGeometry x="120" y="194" width="130" height="30" as="geometry" />
        </mxCell>
        <mxCell id="FpOADRXaUX0aLAv3G2hR-84" value="" style="sketch=0;points=[[0,0,0],[0.25,0,0],[0.5,0,0],[0.75,0,0],[1,0,0],[0,1,0],[0.25,1,0],[0.5,1,0],[0.75,1,0],[1,1,0],[0,0.25,0],[0,0.5,0],[0,0.75,0],[1,0.25,0],[1,0.5,0],[1,0.75,0]];outlineConnect=0;fontColor=#232F3E;fillColor=#8C4FFF;strokeColor=#ffffff;dashed=0;verticalLabelPosition=bottom;verticalAlign=top;align=center;html=1;fontSize=12;fontStyle=0;aspect=fixed;shape=mxgraph.aws4.resourceIcon;resIcon=mxgraph.aws4.route_53;" vertex="1" parent="FpOADRXaUX0aLAv3G2hR-11">
          <mxGeometry x="50" y="560" width="78" height="78" as="geometry" />
        </mxCell>
        <mxCell id="FpOADRXaUX0aLAv3G2hR-86" value="" style="sketch=0;points=[[0,0,0],[0.25,0,0],[0.5,0,0],[0.75,0,0],[1,0,0],[0,1,0],[0.25,1,0],[0.5,1,0],[0.75,1,0],[1,1,0],[0,0.25,0],[0,0.5,0],[0,0.75,0],[1,0.25,0],[1,0.5,0],[1,0.75,0]];outlineConnect=0;fontColor=#232F3E;fillColor=#DD344C;strokeColor=#ffffff;dashed=0;verticalLabelPosition=bottom;verticalAlign=top;align=center;html=1;fontSize=12;fontStyle=0;aspect=fixed;shape=mxgraph.aws4.resourceIcon;resIcon=mxgraph.aws4.waf;" vertex="1" parent="FpOADRXaUX0aLAv3G2hR-11">
          <mxGeometry x="167.5" y="560" width="78" height="78" as="geometry" />
        </mxCell>
        <mxCell id="FpOADRXaUX0aLAv3G2hR-36" value="Amazon Route 53" style="text;html=1;align=center;verticalAlign=middle;resizable=0;points=[];autosize=1;strokeColor=none;fillColor=none;" vertex="1" parent="FpOADRXaUX0aLAv3G2hR-11">
          <mxGeometry x="29" y="638" width="120" height="30" as="geometry" />
        </mxCell>
        <mxCell id="FpOADRXaUX0aLAv3G2hR-85" value="" style="sketch=0;points=[[0,0,0],[0.25,0,0],[0.5,0,0],[0.75,0,0],[1,0,0],[0,1,0],[0.25,1,0],[0.5,1,0],[0.75,1,0],[1,1,0],[0,0.25,0],[0,0.5,0],[0,0.75,0],[1,0.25,0],[1,0.5,0],[1,0.75,0]];outlineConnect=0;fontColor=#232F3E;fillColor=#8C4FFF;strokeColor=#ffffff;dashed=0;verticalLabelPosition=bottom;verticalAlign=top;align=center;html=1;fontSize=12;fontStyle=0;aspect=fixed;shape=mxgraph.aws4.resourceIcon;resIcon=mxgraph.aws4.cloudfront;" vertex="1" parent="FpOADRXaUX0aLAv3G2hR-11">
          <mxGeometry x="289" y="562" width="78" height="78" as="geometry" />
        </mxCell>
        <mxCell id="FpOADRXaUX0aLAv3G2hR-92" value="" style="endArrow=classic;html=1;rounded=0;exitX=1;exitY=0.5;exitDx=0;exitDy=0;exitPerimeter=0;entryX=0;entryY=0.5;entryDx=0;entryDy=0;entryPerimeter=0;" edge="1" parent="FpOADRXaUX0aLAv3G2hR-11" source="FpOADRXaUX0aLAv3G2hR-84" target="FpOADRXaUX0aLAv3G2hR-86">
          <mxGeometry width="50" height="50" relative="1" as="geometry">
            <mxPoint x="550" y="600" as="sourcePoint" />
            <mxPoint x="600" y="550" as="targetPoint" />
          </mxGeometry>
        </mxCell>
        <mxCell id="FpOADRXaUX0aLAv3G2hR-93" value="" style="endArrow=classic;html=1;rounded=0;exitX=1;exitY=0.5;exitDx=0;exitDy=0;exitPerimeter=0;entryX=0;entryY=0.5;entryDx=0;entryDy=0;entryPerimeter=0;" edge="1" parent="FpOADRXaUX0aLAv3G2hR-11" source="FpOADRXaUX0aLAv3G2hR-86" target="FpOADRXaUX0aLAv3G2hR-85">
          <mxGeometry width="50" height="50" relative="1" as="geometry">
            <mxPoint x="550" y="600" as="sourcePoint" />
            <mxPoint x="600" y="550" as="targetPoint" />
          </mxGeometry>
        </mxCell>
        <mxCell id="FpOADRXaUX0aLAv3G2hR-94" value="" style="endArrow=classic;html=1;rounded=0;entryX=0;entryY=0.5;entryDx=0;entryDy=0;entryPerimeter=0;" edge="1" parent="FpOADRXaUX0aLAv3G2hR-11" target="FpOADRXaUX0aLAv3G2hR-45">
          <mxGeometry width="50" height="50" relative="1" as="geometry">
            <mxPoint x="370" y="630" as="sourcePoint" />
            <mxPoint x="600" y="550" as="targetPoint" />
            <Array as="points">
              <mxPoint x="510" y="630" />
              <mxPoint x="510" y="907" />
            </Array>
          </mxGeometry>
        </mxCell>
        <mxCell id="FpOADRXaUX0aLAv3G2hR-95" value="" style="sketch=0;points=[[0,0,0],[0.25,0,0],[0.5,0,0],[0.75,0,0],[1,0,0],[0,1,0],[0.25,1,0],[0.5,1,0],[0.75,1,0],[1,1,0],[0,0.25,0],[0,0.5,0],[0,0.75,0],[1,0.25,0],[1,0.5,0],[1,0.75,0]];outlineConnect=0;fontColor=#232F3E;fillColor=#DD344C;strokeColor=#ffffff;dashed=0;verticalLabelPosition=bottom;verticalAlign=top;align=center;html=1;fontSize=12;fontStyle=0;aspect=fixed;shape=mxgraph.aws4.resourceIcon;resIcon=mxgraph.aws4.certificate_manager_3;" vertex="1" parent="FpOADRXaUX0aLAv3G2hR-11">
          <mxGeometry x="289" y="814" width="78" height="78" as="geometry" />
        </mxCell>
        <mxCell id="FpOADRXaUX0aLAv3G2hR-96" value="ACM" style="text;html=1;align=center;verticalAlign=middle;resizable=0;points=[];autosize=1;strokeColor=none;fillColor=none;" vertex="1" parent="FpOADRXaUX0aLAv3G2hR-11">
          <mxGeometry x="299" y="892" width="50" height="30" as="geometry" />
        </mxCell>
        <mxCell id="FpOADRXaUX0aLAv3G2hR-97" value="" style="endArrow=classic;html=1;rounded=0;exitX=0.5;exitY=0;exitDx=0;exitDy=0;exitPerimeter=0;entryX=0.415;entryY=0.833;entryDx=0;entryDy=0;entryPerimeter=0;" edge="1" parent="FpOADRXaUX0aLAv3G2hR-11" source="FpOADRXaUX0aLAv3G2hR-95" target="FpOADRXaUX0aLAv3G2hR-64">
          <mxGeometry width="50" height="50" relative="1" as="geometry">
            <mxPoint x="550" y="600" as="sourcePoint" />
            <mxPoint x="600" y="550" as="targetPoint" />
          </mxGeometry>
        </mxCell>
        <mxCell id="FpOADRXaUX0aLAv3G2hR-98" value="SSL certificate" style="text;html=1;align=center;verticalAlign=middle;resizable=0;points=[];autosize=1;strokeColor=none;fillColor=none;" vertex="1" parent="FpOADRXaUX0aLAv3G2hR-11">
          <mxGeometry x="231.5" y="730" width="100" height="30" as="geometry" />
        </mxCell>
        <mxCell id="FpOADRXaUX0aLAv3G2hR-99" value="" style="endArrow=classic;html=1;rounded=0;exitX=1;exitY=0.5;exitDx=0;exitDy=0;exitPerimeter=0;entryX=0;entryY=0.25;entryDx=0;entryDy=0;" edge="1" parent="FpOADRXaUX0aLAv3G2hR-11" source="FpOADRXaUX0aLAv3G2hR-71" target="FpOADRXaUX0aLAv3G2hR-75">
          <mxGeometry width="50" height="50" relative="1" as="geometry">
            <mxPoint x="550" y="600" as="sourcePoint" />
            <mxPoint x="600" y="550" as="targetPoint" />
            <Array as="points">
              <mxPoint x="350" y="160" />
              <mxPoint x="350" y="273" />
            </Array>
          </mxGeometry>
        </mxCell>
        <mxCell id="FpOADRXaUX0aLAv3G2hR-100" value="deploy&amp;amp;Test" style="text;html=1;align=center;verticalAlign=middle;resizable=0;points=[];autosize=1;strokeColor=none;fillColor=none;" vertex="1" parent="FpOADRXaUX0aLAv3G2hR-11">
          <mxGeometry x="258" y="130" width="90" height="30" as="geometry" />
        </mxCell>
        <mxCell id="FpOADRXaUX0aLAv3G2hR-78" value="" style="sketch=0;outlineConnect=0;fontColor=#232F3E;gradientColor=none;fillColor=#232F3D;strokeColor=none;dashed=0;verticalLabelPosition=bottom;verticalAlign=top;align=center;html=1;fontSize=12;fontStyle=0;aspect=fixed;pointerEvents=1;shape=mxgraph.aws4.user;" vertex="1" parent="1">
          <mxGeometry x="-452" y="304" width="78" height="78" as="geometry" />
        </mxCell>
        <mxCell id="FpOADRXaUX0aLAv3G2hR-79" value="User" style="text;html=1;align=center;verticalAlign=middle;resizable=0;points=[];autosize=1;strokeColor=none;fillColor=none;" vertex="1" parent="1">
          <mxGeometry x="-438" y="380" width="50" height="30" as="geometry" />
        </mxCell>
        <mxCell id="FpOADRXaUX0aLAv3G2hR-80" value="https://aws.amazon.com/cn/solutions/guidance/web-store-on-aws/?nc1=h_ls" style="text;html=1;align=center;verticalAlign=middle;resizable=0;points=[];autosize=1;strokeColor=none;fillColor=none;" vertex="1" parent="1">
          <mxGeometry x="75" y="1508" width="430" height="30" as="geometry" />
        </mxCell>
        <mxCell id="FpOADRXaUX0aLAv3G2hR-89" value="" style="endArrow=classic;html=1;rounded=0;" edge="1" parent="1" source="FpOADRXaUX0aLAv3G2hR-78">
          <mxGeometry width="50" height="50" relative="1" as="geometry">
            <mxPoint x="500" y="440" as="sourcePoint" />
            <mxPoint y="343" as="targetPoint" />
          </mxGeometry>
        </mxCell>
      </root>
    </mxGraphModel>
  </diagram>
</mxfile>
